#N canvas 8 65 920 729 12;
#X msg 32 69 disconnect;
#X msg 17 34 connect localhost 4560, f 25;
#X obj 211 190 oscformat;
#X obj 211 235 list trim;
#X obj 211 213 list prepend send;
#X floatatom 211 104 5 0 0 0 - - - 0;
#X obj 211 127 t f b;
#X obj 16 280 netsend -u -b;
#X floatatom 337 101 5 0 0 0 - - - 0;
#X obj 337 124 t f b;
#X obj 337 66 tgl 30 0 empty empty empty 17 7 0 10 #fcfcfc #000000
#000000 0 1;
#X msg 243 151 set /slider;
#X msg 369 150 set /boton;
#X obj 214 67 hsl 100 30 0 1 0 0 empty empty empty -2 -8 0 10 #fcfcfc
#000000 #000000 0 1;
#X connect 0 0 7 0;
#X connect 1 0 7 0;
#X connect 2 0 4 0;
#X connect 3 0 7 0;
#X connect 4 0 3 0;
#X connect 5 0 6 0;
#X connect 6 0 2 0;
#X connect 6 1 11 0;
#X connect 8 0 9 0;
#X connect 9 0 2 0;
#X connect 9 1 12 0;
#X connect 10 0 8 0;
#X connect 11 0 2 0;
#X connect 12 0 2 0;
#X connect 13 0 5 0;
