#N canvas 735 94 813 792 12;
#X obj 5 88 cnv 20 800 350 empty empty empty 20 12 0 12 #bbbbbb #404040 0;
#X obj 4 3 cnv 20 800 80 empty empty empty 20 12 0 12 #e0e0e0 #404040 0;
#X obj 34 134 vsl 50 250 0 127 0 0 empty empty empty 0 -9 0 12 #ffc7c6 #000000 #000000 0 1;
#X obj 111 134 vsl 50 250 0 127 0 0 empty empty empty 0 -9 0 12 #c6ffc7 #000000 #000000 0 1;
#X obj 185 134 vsl 50 250 0 127 0 0 empty empty empty 0 -9 0 12 #c7c6ff #000000 #000000 0 1;
#X obj 34 402 ctlout 1;
#X obj 111 402 ctlout 2;
#X obj 185 402 ctlout 3;
#X obj 461 127 vsl 50 250 0 127 0 0 empty empty empty 0 -9 0 12 #ffc7c6 #000000 #000000 0 1;
#X obj 538 127 vsl 50 250 0 127 0 0 empty empty empty 0 -9 0 12 #c6ffc7 #000000 #000000 0 1;
#X obj 612 127 vsl 50 250 0 127 0 0 empty empty empty 0 -9 0 12 #c7c6ff #000000 #000000 0 1;
#X text 32 35 envio mensaje MIDI tipo cc;
#X obj 461 395 ctlout 1 7;
#X obj 538 395 ctlout 2 7;
#X obj 612 395 ctlout 3 7;
#X text 465 93 controller 1 \, 2 \, 3 Ch 6;
#X text 40 101 controller 1 \, 2 \, 3 Ch 0;
#X obj 6 444 cnv 20 800 350 empty empty empty 20 12 0 12 #bbbbbb #404040 0;
#X text 367 462 Hydra;
#X text 56 544 await loadScript( 'https://cdn.jsdelivr.net/npm/hydra-midi@latest/dist/index.js' ) await midi.start( channel: '0' \, input: '*' ) midi.show() solid(cc(1) \, cc(2) \, cc(3)).out(), f 85;
#X text 522 585 faltall llavesen el parentesis de midi star;
#X connect 2 0 5 0;
#X connect 3 0 6 0;
#X connect 4 0 7 0;
#X connect 8 0 12 0;
#X connect 9 0 13 0;
#X connect 10 0 14 0;
