#N canvas 159 146 810 444 12;
#X obj 5 88 cnv 20 800 350 empty empty empty 20 12 0 12 #bbbbbb #404040 0;
#X msg 39 165 disconnect;
#X msg 20 120 connect localhost 4560, f 25;
#X obj 428 320 oscformat;
#X obj 428 365 list trim;
#X obj 428 343 list prepend send;
#X floatatom 396 170 5 0 0 0 - - - 0;
#X obj 396 193 t f b;
#X obj 28 403 netsend -u -b;
#X floatatom 594 168 5 0 0 0 - - - 0;
#X obj 594 191 t f b;
#X obj 594 133 tgl 30 0 empty empty empty 17 7 0 10 #dfdfdf #000000 #000000 0 1;
#X msg 428 217 set /slider;
#X msg 626 217 set /boton;
#X obj 399 133 hsl 100 30 0 1 0 0 empty empty empty -2 -8 0 10 #dfdfdf #000000 #000000 0 1;
#X text 396 101 adress slider;
#X text 592 102 adress boton;
#X obj 4 3 cnv 20 800 80 empty empty empty 20 12 0 12 #e0e0e0 #404040 0;
#X text 6 18 para enviar osc a sonicPi en una misma pc;
#X text 208 120 primero conectar !;
#X connect 1 0 8 0;
#X connect 2 0 8 0;
#X connect 3 0 5 0;
#X connect 4 0 8 0;
#X connect 5 0 4 0;
#X connect 6 0 7 0;
#X connect 7 0 3 0;
#X connect 7 1 12 0;
#X connect 9 0 10 0;
#X connect 10 0 3 0;
#X connect 10 1 13 0;
#X connect 11 0 9 0;
#X connect 12 0 3 0;
#X connect 13 0 3 0;
#X connect 14 0 6 0;
