#N canvas 206 152 808 449 12;
#X obj 2 3 cnv 20 800 80 empty empty empty 20 12 0 12 #e0e0e0 #404040 0;
#X obj 4 96 cnv 20 495 350 empty empty empty 20 12 0 12 #bbbbbb #404040 0;
#X msg 16 147 disconnect;
#X obj 265 330 oscformat;
#X obj 265 375 list trim;
#X obj 265 353 list prepend send;
#X floatatom 265 173 5 0 0 0 - - - 0;
#X obj 265 196 t f b;
#X text 25 98 envio de OSC;
#X obj 14 418 netsend -u -b;
#X msg 27 244 connect 192.168.100.255 2806;
#X obj 268 140 hsl 170 20 0 255 0 0 empty empty empty -2 -10 0 12 #fcfcfc #000000 #000000 0 1;
#X obj 265 221 int;
#X msg 39 279 connect 192.168.1.255 2806;
#X text 190 220 puerto;
#X text 89 221 ip;
#X msg 297 246 set a, f 11;
#X obj 509 96 cnv 20 295 350 empty empty empty 20 12 0 12 #bbbbbb #404040 0;
#X obj 589 179 oscparse;
#X obj 589 206 list trim;
#X text 546 97 recepcion de OSC;
#X text 729 130 puerto;
#X obj 589 152 netreceive -u -b -f 2806;
#X obj 589 260 vsl 20 170 0 255 0 0 empty empty empty 0 -9 0 12 #fcfcfc #000000 #000000 0 1;
#X obj 589 231 route a b, f 13;
#X obj 633 262 vsl 20 170 0 255 0 0 empty empty empty 0 -9 0 12 #fcfcfc #000000 #000000 0 1;
#X text 28 31 envio de OSC entre equipos de una misma red local;
#X connect 2 0 9 0;
#X connect 3 0 5 0;
#X connect 4 0 9 0;
#X connect 5 0 4 0;
#X connect 6 0 7 0;
#X connect 7 0 12 0;
#X connect 7 1 16 0;
#X connect 10 0 9 0;
#X connect 11 0 6 0;
#X connect 12 0 3 0;
#X connect 13 0 9 0;
#X connect 16 0 3 0;
#X connect 18 0 19 0;
#X connect 19 0 24 0;
#X connect 22 0 18 0;
#X connect 24 0 23 0;
#X connect 24 1 25 0;
