#N canvas 20 0 1920 997 12;
#X obj 17 392 netsend -u -b;
#X obj 231 203 hsl 128 15 0 127 0 0 empty empty empty -2 -8 0 10 #fcfcfc
#000000 #000000 0 1;
#X floatatom 229 222 5 0 0 0 - - - 0;
#X obj 229 245 t f b;
#X obj 229 300 oscformat;
#X obj 229 324 list prepend send;
#X obj 229 348 list trim;
#X msg 17 204 connect 192.168.1.255 9999;
#X obj 622 212 adc~, f 6;
#X obj 622 341 dac~, f 6;
#X obj 622 287 *~;
#X obj 693 245 hsl 128 15 0 2 0 0 empty empty empty -2 -8 0 10 #fcfcfc
#000000 #000000 0 1;
#X obj 661 286 *~;
#X floatatom 711 276 5 0 0 0 - - - 0;
#X obj 692 111 netreceive -u -b -f 9999;
#X obj 692 135 oscparse;
#X obj 692 159 list trim;
#X obj 701 195 route amp;
#X obj 406 201 hsl 128 15 0 127 0 0 empty empty empty -2 -8 0 10 #fcfcfc
#000000 #000000 0 1;
#X floatatom 403 220 5 0 0 0 - - - 0;
#X obj 403 245 t f b;
#X msg 435 274 set b;
#X floatatom 228 159 3 0 0 0 - - - 0;
#X floatatom 403 119 3 0 0 0 - - - 0;
#X obj 403 94 ctlin 2;
#X obj 403 173 line;
#X msg 403 143 \$1 250;
#X msg 261 271 set a;
#X obj 693 343 route A B;
#X obj 696 391 hsl 128 15 0 127 0 0 empty empty empty -2 -8 0 10 #fcfcfc
#000000 #000000 0 1;
#X obj 698 420 hsl 128 15 0 127 0 0 empty empty empty -2 -8 0 10 #fcfcfc
#000000 #000000 0 1;
#X obj 228 133 ctlin 1;
#X connect 1 0 2 0;
#X connect 2 0 3 0;
#X connect 3 0 4 0;
#X connect 3 1 27 0;
#X connect 4 0 5 0;
#X connect 5 0 6 0;
#X connect 6 0 0 0;
#X connect 7 0 0 0;
#X connect 8 0 10 0;
#X connect 8 1 12 0;
#X connect 10 0 9 0;
#X connect 11 0 10 1;
#X connect 11 0 12 1;
#X connect 11 0 13 0;
#X connect 12 0 9 1;
#X connect 14 0 15 0;
#X connect 15 0 16 0;
#X connect 16 0 17 0;
#X connect 16 0 28 0;
#X connect 17 0 11 0;
#X connect 18 0 19 0;
#X connect 19 0 20 0;
#X connect 20 0 4 0;
#X connect 20 1 21 0;
#X connect 21 0 4 0;
#X connect 22 0 1 0;
#X connect 23 0 26 0;
#X connect 24 0 23 0;
#X connect 25 0 18 0;
#X connect 26 0 25 0;
#X connect 27 0 4 0;
#X connect 28 0 29 0;
#X connect 28 1 30 0;
#X connect 31 0 22 0;
